<svg width="600" height="520" viewBox="0 0 600 520" fill="none" xmlns="http://www.w3.org/2000/svg">
<rect width="291.88" height="291.88" rx="24" transform="matrix(0.279087 -0.960266 0.960554 0.278093 64 289.281)" fill="#F2F6FF"/>
<rect width="270.81" height="270.81" rx="24" transform="matrix(-0.403486 -0.914986 0.914568 -0.404433 292.27 502.311)" fill="#E5EEFF"/>
<g filter="url(#filter0_d_2076_68240)">
<path d="M57.6078 142.986C57.6173 139.145 60.7389 136.031 64.5801 136.03L250.631 136.001C254.472 136.001 257.578 139.114 257.569 142.955L256.977 382.056C256.968 385.897 253.846 389.012 250.005 389.012L63.9541 389.041C60.1129 389.042 57.0067 385.928 57.0162 382.087L57.6078 142.986Z" fill="white"/>
<path d="M59.3466 142.986C59.3537 140.105 61.6949 137.769 64.5758 137.769L250.627 137.74C253.507 137.74 255.837 140.075 255.83 142.955L255.238 382.056C255.231 384.937 252.89 387.273 250.009 387.273L63.9584 387.302C61.0775 387.303 58.7478 384.968 58.755 382.087L59.3466 142.986Z" stroke="#D1D1D1" stroke-width="3.47755"/>
</g>
<path d="M74.3672 178.44C74.3694 177.575 75.072 176.873 75.9367 176.873L200.489 176.853C201.354 176.853 202.053 177.555 202.051 178.42C202.049 179.286 201.346 179.987 200.481 179.988L75.9289 180.007C75.0643 180.007 74.3651 179.306 74.3672 178.44Z" fill="#D1D1D1"/>
<path d="M125.597 305.956C125.6 305.044 126.34 304.305 127.25 304.305L212.993 304.292C213.903 304.291 214.64 305.03 214.637 305.942C214.635 306.853 213.895 307.592 212.984 307.592L127.242 307.606C126.332 307.606 125.595 306.867 125.597 305.956Z" fill="#D1D1D1"/>
<path d="M74.3465 186.797C74.3487 185.931 75.0514 185.23 75.916 185.229L214.385 185.208C215.25 185.208 215.949 185.909 215.947 186.775C215.945 187.64 215.242 188.342 214.377 188.342L75.9083 188.364C75.0436 188.364 74.3444 187.662 74.3465 186.797Z" fill="#D1D1D1"/>
<path d="M125.577 314.208C125.579 313.479 126.171 312.887 126.899 312.887L227.811 312.872C228.54 312.871 229.129 313.462 229.127 314.192C229.125 314.921 228.533 315.512 227.805 315.512L126.893 315.528C126.164 315.528 125.575 314.937 125.577 314.208Z" fill="#D1D1D1"/>
<path d="M74.3241 195.851C74.3263 194.985 75.029 194.284 75.8936 194.284L176.092 194.268C176.957 194.268 177.656 194.969 177.654 195.835C177.652 196.7 176.949 197.402 176.084 197.402L75.8859 197.418C75.0212 197.418 74.322 196.716 74.3241 195.851Z" fill="#D1D1D1"/>
<path d="M125.555 323.283C125.557 322.418 126.259 321.716 127.124 321.716L227.323 321.7C228.187 321.7 228.887 322.401 228.884 323.267C228.882 324.132 228.18 324.834 227.315 324.834L127.116 324.85C126.252 324.85 125.552 324.148 125.555 323.283Z" fill="#D1D1D1"/>
<path d="M74.2587 222.317C74.2608 221.452 74.9635 220.75 75.8281 220.75L238.651 220.724C239.516 220.724 240.215 221.426 240.213 222.291C240.21 223.157 239.508 223.858 238.643 223.858L75.8204 223.884C74.9557 223.884 74.2565 223.182 74.2587 222.317Z" fill="#D1D1D1"/>
<path d="M73.9433 349.757C73.9455 348.892 74.6482 348.19 75.5128 348.19L238.336 348.165C239.2 348.164 239.899 348.866 239.897 349.731C239.895 350.597 239.192 351.299 238.328 351.299L75.5051 351.324C74.6404 351.324 73.9412 350.623 73.9433 349.757Z" fill="#D1D1D1"/>
<path d="M74.2406 229.63C74.2427 228.765 74.9454 228.063 75.81 228.063L231.675 228.039C232.539 228.039 233.238 228.74 233.236 229.606C233.234 230.471 232.531 231.173 231.667 231.173L75.8023 231.197C74.9376 231.197 74.2384 230.496 74.2406 229.63Z" fill="#D1D1D1"/>
<path d="M73.9252 357.071C73.9274 356.205 74.6301 355.504 75.4947 355.503L231.359 355.479C232.224 355.479 232.923 356.18 232.921 357.046C232.919 357.911 232.216 358.613 231.352 358.613L75.487 358.638C74.6223 358.638 73.9231 357.936 73.9252 357.071Z" fill="#D1D1D1"/>
<path d="M74.2225 236.944C74.2246 236.078 74.9273 235.377 75.7919 235.377L235.136 235.352C236 235.352 236.699 236.053 236.697 236.919C236.695 237.784 235.993 238.486 235.128 238.486L75.7842 238.511C74.9195 238.511 74.2203 237.809 74.2225 236.944Z" fill="#D1D1D1"/>
<path d="M73.9072 364.384C73.9093 363.519 74.612 362.817 75.4766 362.817L234.82 362.792C235.685 362.792 236.384 363.493 236.382 364.359C236.38 365.224 235.677 365.926 234.813 365.926L75.4689 365.951C74.6042 365.951 73.905 365.25 73.9072 364.384Z" fill="#D1D1D1"/>
<path d="M74.2044 244.256C74.2065 243.391 74.9092 242.689 75.7739 242.689L235.118 242.664C235.982 242.664 236.681 243.365 236.679 244.231C236.677 245.096 235.974 245.798 235.11 245.798L75.7661 245.823C74.9014 245.823 74.2022 245.122 74.2044 244.256Z" fill="#D1D1D1"/>
<path d="M74.1863 251.57C74.1884 250.704 74.8911 250.002 75.7558 250.002L224.662 249.979C225.527 249.979 226.226 250.68 226.224 251.546C226.222 252.411 225.519 253.113 224.654 253.113L75.748 253.136C74.8834 253.137 74.1841 252.435 74.1863 251.57Z" fill="#D1D1D1"/>
<path d="M74.1682 258.882C74.1703 258.016 74.873 257.315 75.7377 257.314L224.644 257.291C225.509 257.291 226.208 257.993 226.206 258.858C226.204 259.724 225.501 260.425 224.636 260.425L75.7299 260.449C74.8653 260.449 74.166 259.747 74.1682 258.882Z" fill="#D1D1D1"/>
<path d="M74.1501 266.195C74.1522 265.33 74.8549 264.628 75.7196 264.628L224.626 264.605C225.491 264.605 226.19 265.306 226.188 266.172C226.185 267.037 225.483 267.739 224.618 267.739L75.7118 267.762C74.8472 267.762 74.148 267.061 74.1501 266.195Z" fill="#D1D1D1"/>
<path d="M74.132 273.509C74.1341 272.643 74.8368 271.942 75.7015 271.941L224.608 271.918C225.472 271.918 226.172 272.62 226.17 273.485C226.167 274.35 225.465 275.052 224.6 275.052L75.6937 275.076C74.8291 275.076 74.1299 274.374 74.132 273.509Z" fill="#D1D1D1"/>
<path d="M125.634 291.261C125.636 290.395 126.339 289.694 127.203 289.694L196.09 289.683C196.955 289.683 197.654 290.384 197.652 291.25C197.649 292.115 196.947 292.817 196.082 292.817L127.196 292.828C126.331 292.828 125.632 292.126 125.634 291.261Z" fill="#D1D1D1"/>
<path d="M125.537 330.382C125.539 329.47 126.279 328.731 127.19 328.731L206.337 328.719C207.247 328.719 207.984 329.458 207.981 330.369C207.979 331.281 207.239 332.02 206.328 332.02L127.182 332.032C126.271 332.032 125.535 331.294 125.537 330.382Z" fill="#D1D1D1"/>
<path d="M125.616 298.573C125.618 297.708 126.321 297.006 127.185 297.006L196.072 296.995C196.936 296.995 197.636 297.696 197.633 298.562C197.631 299.427 196.929 300.129 196.064 300.129L127.177 300.14C126.313 300.14 125.614 299.438 125.616 298.573Z" fill="#D1D1D1"/>
<rect width="167.314" height="6.80139" rx="3.4007" transform="matrix(1 -0.000155844 -0.0024742 0.999997 73.8672 158.729)" fill="#0055FF"/>
<g filter="url(#filter1_d_2076_68240)">
<path d="M342.609 115.334C342.618 111.853 345.447 109.031 348.928 109.03L536.283 109.001C539.764 109.001 542.579 111.822 542.57 115.303L541.976 355.708C541.967 359.189 539.138 362.012 535.657 362.012L348.302 362.041C344.821 362.042 342.006 359.22 342.015 355.739L342.609 115.334Z" fill="white"/>
<path d="M344.185 115.334C344.192 112.723 346.313 110.606 348.924 110.606L536.279 110.577C538.89 110.576 541.001 112.693 540.995 115.304L540.4 355.708C540.393 358.319 538.271 360.436 535.661 360.436L348.306 360.466C345.695 360.466 343.584 358.35 343.59 355.739L344.185 115.334Z" stroke="#D1D1D1" stroke-width="3.15162"/>
</g>
<rect width="167.314" height="6.80139" rx="3.4007" transform="matrix(1 -0.000155844 -0.0024742 0.999997 358.867 131.73)" fill="#0055FF"/>
<rect x="388.004" y="179" width="64" height="6" rx="3" fill="#DDDDDD"/>
<rect x="374.004" y="157" width="135" height="6" rx="3" fill="#CCDDFF"/>
<rect x="388.004" y="169" width="64" height="6" rx="3" fill="#DDDDDD"/>
<rect x="388.004" y="189" width="64" height="6" rx="3" fill="#DDDDDD"/>
<rect x="388.004" y="199" width="64" height="6" rx="3" fill="#DDDDDD"/>
<circle cx="381.004" cy="172" r="3" fill="#DDDDDD"/>
<circle cx="381.004" cy="182" r="3" fill="#DDDDDD"/>
<circle cx="381.004" cy="192" r="3" fill="#DDDDDD"/>
<circle cx="381.004" cy="202" r="3" fill="#D1D1D1"/>
<rect x="388.004" y="243" width="64" height="6" rx="3" fill="#D1D1D1"/>
<rect x="374.004" y="221" width="135" height="6" rx="3" fill="#CCDDFF"/>
<rect x="388.004" y="233" width="64" height="6" rx="3" fill="#D1D1D1"/>
<rect x="388.004" y="253" width="64" height="6" rx="3" fill="#D1D1D1"/>
<rect x="388.004" y="263" width="64" height="6" rx="3" fill="#D1D1D1"/>
<circle cx="381.004" cy="236" r="3" fill="#D1D1D1"/>
<circle cx="381.004" cy="246" r="3" fill="#D1D1D1"/>
<circle cx="381.004" cy="256" r="3" fill="#D1D1D1"/>
<circle cx="381.004" cy="266" r="3" fill="#D1D1D1"/>
<rect x="388.004" y="307" width="64" height="6" rx="3" fill="#D1D1D1"/>
<rect x="374.004" y="285" width="135" height="6" rx="3" fill="#CCDDFF"/>
<rect x="388.004" y="297" width="64" height="6" rx="3" fill="#D1D1D1"/>
<rect x="388.004" y="317" width="64" height="6" rx="3" fill="#D1D1D1"/>
<rect x="388.004" y="327" width="64" height="6" rx="3" fill="#D1D1D1"/>
<circle cx="381.004" cy="300" r="3" fill="#D1D1D1"/>
<circle cx="381.004" cy="310" r="3" fill="#D1D1D1"/>
<circle cx="381.004" cy="320" r="3" fill="#D1D1D1"/>
<circle cx="381.004" cy="330" r="3" fill="#D1D1D1"/>
<path fill-rule="evenodd" clip-rule="evenodd" d="M448.415 364.152C447.681 365.564 445.941 366.114 444.528 365.38C443.116 364.646 442.566 362.905 443.3 361.493C443.992 360.163 444.694 358.82 445.418 357.492C445.855 356.689 446.154 355.769 446.326 354.729C446.586 353.158 448.069 352.095 449.64 352.354C451.211 352.613 452.274 354.097 452.014 355.668C451.757 357.229 451.279 358.785 450.48 360.251C449.785 361.526 449.104 362.826 448.415 364.152ZM436.885 372.904C437.768 371.579 439.558 371.221 440.882 372.104C442.207 372.987 442.565 374.777 441.681 376.102C440.811 377.407 439.883 378.687 438.879 379.924C437.931 381.091 436.904 382.253 435.812 383.401C434.714 384.555 432.89 384.6 431.736 383.503C430.583 382.406 430.538 380.581 431.635 379.428C432.633 378.379 433.559 377.329 434.403 376.289C435.277 375.214 436.099 374.083 436.885 372.904ZM422.055 387.806C423.336 386.86 425.14 387.133 426.086 388.414C427.031 389.695 426.759 391.499 425.478 392.445C423.037 394.246 420.475 395.939 417.855 397.472C416.481 398.276 414.715 397.814 413.911 396.44C413.107 395.066 413.569 393.3 414.944 392.496C417.382 391.07 419.773 389.489 422.055 387.806ZM450.911 342.979C451.283 344.527 450.329 346.083 448.781 346.455C447.234 346.827 445.677 345.874 445.305 344.326C445.103 343.487 444.901 342.693 444.702 341.909L444.701 341.908C444.588 341.464 444.476 341.023 444.365 340.579C444.083 339.45 443.755 338.352 443.386 337.282C442.867 335.777 443.666 334.136 445.171 333.617C446.676 333.098 448.317 333.897 448.836 335.402C449.259 336.628 449.635 337.887 449.958 339.182C450.056 339.573 450.162 339.989 450.272 340.423L450.272 340.423C450.479 341.236 450.701 342.108 450.911 342.979ZM403.486 397.832C404.994 397.322 406.63 398.13 407.14 399.638C407.651 401.146 406.842 402.782 405.334 403.293C403.821 403.805 402.313 404.24 400.821 404.585C399.369 404.922 397.908 405.184 396.444 405.372C394.865 405.575 393.421 404.459 393.219 402.88C393.016 401.301 394.132 399.856 395.711 399.654C396.982 399.491 398.253 399.262 399.519 398.969C400.809 398.67 402.135 398.289 403.486 397.832ZM443.71 324.869C444.56 326.215 444.157 327.995 442.811 328.845C441.464 329.694 439.684 329.291 438.835 327.945C437.589 325.97 436.209 324.061 434.726 322.184C433.739 320.935 433.952 319.123 435.201 318.136C436.45 317.149 438.263 317.362 439.25 318.611C440.831 320.613 442.335 322.689 443.71 324.869ZM384.218 399.305C385.78 399.613 386.796 401.129 386.488 402.691C386.179 404.253 384.663 405.269 383.101 404.961C380.163 404.38 377.296 403.466 374.557 402.207C373.601 401.768 373 400.872 372.894 399.898C371.732 400.277 370.411 399.885 369.659 398.84C368.73 397.547 369.024 395.746 370.317 394.816C371.112 394.245 371.901 393.631 372.681 392.972C373.824 392.008 374.791 391.01 375.566 390.012C376.543 388.755 378.354 388.527 379.611 389.504C380.868 390.48 381.096 392.291 380.119 393.549C379.193 394.74 378.11 395.877 376.904 396.942C376.924 396.951 376.944 396.96 376.964 396.969C379.277 398.032 381.711 398.809 384.218 399.305ZM431.849 310.081C432.928 311.251 432.855 313.074 431.685 314.154C430.514 315.233 428.691 315.16 427.611 313.99C426.785 313.093 425.95 312.198 425.109 311.295C424.708 310.864 424.464 310.344 424.374 309.804C424.237 310.194 424.154 310.608 424.134 311.038C423.913 315.833 422.997 319.668 422.032 322.265C421.496 323.705 419.801 324.162 418.475 323.389C417.149 322.616 416.664 320.888 417.13 319.427C418.137 316.265 419.143 310.751 418.29 303.524C418.184 302.627 418.515 301.729 419.178 301.112C419.842 300.495 420.756 300.235 421.635 300.413C423.309 300.753 426.294 301.175 429.631 301.292C431.966 301.373 434.378 301.301 436.585 300.983C438.127 300.76 439.685 301.642 440.086 303.148C440.481 304.628 439.612 306.158 438.102 306.415C435.194 306.909 432.128 306.997 429.38 306.901C429.162 306.893 428.945 306.884 428.729 306.874C428.945 307.007 429.146 307.171 429.327 307.365C430.167 308.266 431.011 309.172 431.849 310.081ZM380.365 376.905C381.454 378.066 381.396 379.891 380.234 380.98C379.073 382.069 377.249 382.01 376.16 380.849C375.454 380.096 374.461 379.322 373.096 378.579C372.35 378.172 371.613 377.843 370.887 377.591C369.383 377.068 368.588 375.426 369.11 373.922C369.632 372.418 371.275 371.622 372.779 372.145C373.83 372.51 374.856 372.972 375.855 373.516C377.655 374.497 379.166 375.627 380.365 376.905ZM362.471 399.123C363.948 398.53 365.627 399.247 366.22 400.724C366.813 402.202 366.096 403.88 364.619 404.473C362.478 405.333 360.3 406.014 358.092 406.553C356.545 406.93 354.985 405.982 354.608 404.435C354.231 402.888 355.179 401.329 356.726 400.952C358.694 400.472 360.608 399.871 362.471 399.123ZM367.681 390.422C368.794 391.561 368.773 393.386 367.635 394.498C366.496 395.611 364.671 395.591 363.558 394.452C362.525 393.396 361.541 392.265 360.611 391.06L360.535 390.962C360.01 390.282 359.341 389.415 358.678 388.462C357.769 387.155 358.091 385.358 359.398 384.449C360.705 383.54 362.502 383.863 363.411 385.17C363.99 386.003 364.582 386.769 365.118 387.464L365.175 387.538C365.969 388.566 366.806 389.527 367.681 390.422ZM347.621 402.38C349.207 402.244 350.603 403.419 350.739 405.005C350.875 406.591 349.7 407.988 348.114 408.124C347.015 408.218 345.91 408.292 344.8 408.349C343.433 408.419 342.047 408.457 340.649 408.463C339.057 408.468 337.761 407.183 337.756 405.591C337.75 403.999 339.036 402.703 340.628 402.698C341.934 402.693 343.229 402.657 344.504 402.591C345.556 402.537 346.594 402.468 347.621 402.38ZM362.357 372.062C363.86 371.535 365.505 372.325 366.032 373.828C366.559 375.33 365.768 376.975 364.266 377.502C363.587 377.74 362.895 378.065 362.191 378.49C361.554 378.876 361.331 379.214 361.237 379.423C360.586 380.875 358.88 381.525 357.428 380.873C355.975 380.222 355.326 378.516 355.977 377.064C356.625 375.618 357.737 374.446 359.208 373.557C360.235 372.936 361.286 372.438 362.357 372.062ZM329.039 401.91C330.614 402.136 331.709 403.596 331.483 405.172C331.257 406.748 329.796 407.842 328.22 407.616C326.849 407.42 325.486 407.187 324.139 406.918C322.687 406.659 320.93 405.978 319.115 405.05C317.698 404.324 317.137 402.587 317.863 401.17C318.588 399.753 320.325 399.192 321.742 399.918C323.335 400.733 324.519 401.132 325.165 401.244C325.19 401.249 325.215 401.253 325.239 401.258C326.488 401.509 327.757 401.726 329.039 401.91ZM311.727 392.249C312.817 393.409 312.76 395.234 311.599 396.323C310.438 397.413 308.614 397.356 307.524 396.195C306.435 395.035 305.379 393.783 304.389 392.443C303.443 391.163 303.714 389.358 304.994 388.412C306.274 387.466 308.079 387.737 309.025 389.017C309.872 390.162 310.781 391.241 311.727 392.249Z" fill="#FF5975"/>
<path fill-rule="evenodd" clip-rule="evenodd" d="M558.71 424.14C557.763 423.193 557.763 421.658 558.71 420.71C559.657 419.763 561.192 419.763 562.139 420.71L567.282 425.855C568.229 426.803 568.229 428.338 567.282 429.285C566.335 430.233 564.8 430.233 563.853 429.285L558.71 424.14ZM570.713 436.145C569.766 435.197 569.766 433.662 570.713 432.715C571.66 431.767 573.195 431.767 574.142 432.715L579.285 437.86C580.232 438.807 580.232 440.342 579.285 441.29C578.338 442.237 576.803 442.237 575.856 441.29L570.713 436.145ZM558.71 441.29C559.657 442.237 561.192 442.237 562.139 441.29L567.282 436.145C568.229 435.197 568.229 433.662 567.282 432.715C566.335 431.767 564.8 431.767 563.853 432.715L558.71 437.86C557.763 438.807 557.763 440.342 558.71 441.29ZM574.147 429.286C573.2 430.233 571.665 430.233 570.718 429.286C569.771 428.339 569.771 426.803 570.718 425.856L575.861 420.711C576.808 419.764 578.343 419.764 579.29 420.711C580.237 421.658 580.237 423.194 579.29 424.141L574.147 429.286Z" fill="#3D99F5"/>
<path fill-rule="evenodd" clip-rule="evenodd" d="M552 473C552 479.075 547.075 484 541 484C534.925 484 530 479.075 530 473C530 466.925 534.925 462 541 462C547.075 462 552 466.925 552 473ZM535.501 473C535.501 476.038 537.963 478.5 541.001 478.5C544.038 478.5 546.501 476.038 546.501 473C546.501 469.962 544.038 467.5 541.001 467.5C537.963 467.5 535.501 469.962 535.501 473Z" fill="#FF5975"/>
<path fill-rule="evenodd" clip-rule="evenodd" d="M36.7101 54.1404C35.7633 53.1932 35.7633 51.6576 36.7101 50.7104C37.657 49.7632 39.1921 49.7632 40.139 50.7104L45.2822 55.8554C46.229 56.8026 46.229 58.3382 45.2822 59.2854C44.3353 60.2326 42.8002 60.2326 41.8534 59.2854L36.7101 54.1404ZM48.7132 66.1446C47.7664 65.1974 47.7664 63.6617 48.7132 62.7145C49.66 61.7674 51.1952 61.7674 52.142 62.7145L57.2852 67.8596C58.2321 68.8067 58.2321 70.3424 57.2852 71.2896C56.3384 72.2368 54.8033 72.2368 53.8564 71.2896L48.7132 66.1446ZM36.7101 71.2896C37.657 72.2368 39.1921 72.2368 40.139 71.2896L45.2822 66.1446C46.229 65.1974 46.229 63.6617 45.2822 62.7145C44.3353 61.7674 42.8002 61.7674 41.8534 62.7145L36.7101 67.8596C35.7633 68.8067 35.7633 70.3424 36.7101 71.2896ZM52.1467 59.2858C51.1999 60.233 49.6647 60.233 48.7179 59.2858C47.7711 58.3387 47.7711 56.803 48.7179 55.8559L53.861 50.7108C54.8079 49.7637 56.343 49.7637 57.2899 50.7108C58.2367 51.658 58.2367 53.1936 57.2899 54.1408L52.1467 59.2858Z" fill="#3D99F5"/>
<path fill-rule="evenodd" clip-rule="evenodd" d="M94 32C94 38.0751 89.0751 43 83 43C76.9249 43 72 38.0751 72 32C72 25.9249 76.9249 21 83 21C89.0751 21 94 25.9249 94 32ZM77.5009 32C77.5009 35.0376 79.9633 37.5 83.0009 37.5C86.0384 37.5 88.5009 35.0376 88.5009 32C88.5009 28.9625 86.0384 26.5001 83.0009 26.5001C79.9633 26.5001 77.5009 28.9625 77.5009 32Z" fill="#FF5975"/>
<rect x="228" y="302" width="97" height="98" rx="48.5" fill="#FF5975"/>
<path fill-rule="evenodd" clip-rule="evenodd" d="M280.769 325L282.983 333.119C283.52 333.314 284.046 333.532 284.559 333.772L291.866 329.597L297.903 335.634L293.728 342.941C293.968 343.454 294.186 343.98 294.381 344.517L302.5 346.731V355.269L294.381 357.483C294.186 358.02 293.968 358.546 293.728 359.059L297.903 366.366L291.866 372.403L284.559 368.228C284.046 368.468 283.52 368.686 282.983 368.881L280.769 377H272.231L270.017 368.881C269.48 368.686 268.954 368.468 268.441 368.228L261.134 372.403L255.097 366.366L259.272 359.059C259.032 358.546 258.814 358.02 258.619 357.483L250.5 355.269V346.731L258.619 344.517C258.814 343.98 259.032 343.454 259.272 342.941L255.097 335.634L261.134 329.597L268.441 333.772C268.954 333.532 269.48 333.314 270.017 333.119L272.231 325H280.769ZM278.783 327.6H274.217L272.171 335.104L270.903 335.563C270.442 335.73 269.988 335.919 269.544 336.127L268.322 336.699L261.568 332.84L258.34 336.068L262.199 342.822L261.627 344.044C261.419 344.488 261.23 344.942 261.063 345.403L260.604 346.671L253.1 348.717V353.283L260.604 355.329L261.063 356.597C261.23 357.058 261.419 357.512 261.627 357.956L262.199 359.178L258.34 365.932L261.568 369.16L268.322 365.301L269.544 365.873C269.988 366.081 270.442 366.27 270.903 366.437L272.171 366.896L274.217 374.4H278.783L280.829 366.896L282.097 366.437C282.558 366.27 283.012 366.081 283.456 365.873L284.678 365.301L291.432 369.16L294.66 365.932L290.801 359.178L291.373 357.956C291.581 357.512 291.77 357.058 291.937 356.597L292.396 355.329L299.9 353.283V348.717L292.396 346.671L291.937 345.403C291.77 344.942 291.581 344.488 291.373 344.044L290.801 342.822L294.66 336.068L291.432 332.84L284.678 336.699L283.456 336.127C283.012 335.919 282.558 335.73 282.097 335.563L280.829 335.104L278.783 327.6ZM276.5 338C283.68 338 289.5 343.82 289.5 351C289.5 358.18 283.68 364 276.5 364C269.32 364 263.5 358.18 263.5 351C263.5 343.82 269.32 338 276.5 338ZM276.5 340.6C270.756 340.6 266.1 345.256 266.1 351C266.1 356.744 270.756 361.4 276.5 361.4C282.244 361.4 286.9 356.744 286.9 351C286.9 345.256 282.244 340.6 276.5 340.6Z" fill="white"/>
<rect x="188" y="362" width="63" height="63" rx="31.5" fill="#FFB700"/>
<path fill-rule="evenodd" clip-rule="evenodd" d="M222.784 373.5L224.487 379.745C224.9 379.895 225.304 380.063 225.699 380.248L231.32 377.036L235.964 381.68L232.752 387.301C232.937 387.696 233.105 388.1 233.255 388.513L239.5 390.216V396.784L233.255 398.487C233.105 398.9 232.937 399.304 232.752 399.699L235.964 405.32L231.32 409.964L225.699 406.752C225.304 406.937 224.9 407.105 224.487 407.255L222.784 413.5H216.216L214.513 407.255C214.1 407.105 213.696 406.937 213.301 406.752L207.68 409.964L203.036 405.32L206.248 399.699C206.063 399.304 205.895 398.9 205.745 398.487L199.5 396.784V390.216L205.745 388.513C205.895 388.1 206.063 387.696 206.248 387.301L203.036 381.68L207.68 377.036L213.301 380.248C213.696 380.063 214.1 379.895 214.513 379.745L216.216 373.5H222.784ZM221.256 375.5H217.744L216.17 381.272L215.195 381.625C214.84 381.754 214.491 381.899 214.149 382.059L213.21 382.499L208.014 379.53L205.53 382.014L208.499 387.21L208.059 388.149C207.899 388.491 207.754 388.84 207.625 389.195L207.272 390.17L201.5 391.744V395.256L207.272 396.83L207.625 397.805C207.754 398.16 207.899 398.509 208.059 398.851L208.499 399.79L205.53 404.986L208.014 407.47L213.21 404.501L214.149 404.941C214.491 405.101 214.84 405.246 215.195 405.375L216.17 405.728L217.744 411.5H221.256L222.83 405.728L223.805 405.375C224.16 405.246 224.509 405.101 224.851 404.941L225.79 404.501L230.986 407.47L233.47 404.986L230.501 399.79L230.941 398.851C231.101 398.509 231.246 398.16 231.375 397.805L231.728 396.83L237.5 395.256V391.744L231.728 390.17L231.375 389.195C231.246 388.84 231.101 388.491 230.941 388.149L230.501 387.21L233.47 382.014L230.986 379.53L225.79 382.499L224.851 382.059C224.509 381.899 224.16 381.754 223.805 381.625L222.83 381.272L221.256 375.5ZM219.5 383.5C225.023 383.5 229.5 387.977 229.5 393.5C229.5 399.023 225.023 403.5 219.5 403.5C213.977 403.5 209.5 399.023 209.5 393.5C209.5 387.977 213.977 383.5 219.5 383.5ZM219.5 385.5C215.082 385.5 211.5 389.082 211.5 393.5C211.5 397.918 215.082 401.5 219.5 401.5C223.918 401.5 227.5 397.918 227.5 393.5C227.5 389.082 223.918 385.5 219.5 385.5Z" fill="#1A1A1A"/>
<rect x="293" y="78" width="80" height="80" rx="40" fill="#0048D9"/>
<path fill-rule="evenodd" clip-rule="evenodd" d="M343.193 116.835L346.426 125.204C346.764 126.079 347.443 126.772 348.301 127.117L356.5 130.417L348.301 133.717C347.443 134.062 346.764 134.755 346.426 135.631L343.193 144L339.96 135.631C339.622 134.755 338.943 134.062 338.086 133.717L329.887 130.417L338.086 127.117C338.943 126.772 339.622 126.079 339.96 125.204L343.193 116.835Z" fill="white"/>
<path fill-rule="evenodd" clip-rule="evenodd" d="M317.721 111.209L319.719 116.38C319.928 116.92 320.347 117.349 320.877 117.562L325.943 119.601L320.877 121.64C320.347 121.853 319.928 122.281 319.719 122.822L317.721 127.993L315.724 122.822C315.515 122.281 315.096 121.853 314.566 121.64L309.5 119.601L314.566 117.562C315.096 117.349 315.515 116.92 315.724 116.38L317.721 111.209Z" fill="white"/>
<path fill-rule="evenodd" clip-rule="evenodd" d="M334.888 92L337.246 98.1047C337.493 98.7432 337.988 99.2487 338.614 99.5004L344.594 101.907L338.614 104.314C337.988 104.566 337.493 105.072 337.246 105.71L334.888 111.815L332.53 105.71C332.283 105.072 331.788 104.566 331.163 104.314L325.182 101.907L331.163 99.5004C331.788 99.2487 332.283 98.7432 332.53 98.1047L334.888 92Z" fill="white"/>
<defs>
<filter id="filter0_d_2076_68240" x="55.1812" y="134.168" width="204.223" height="256.708" filterUnits="userSpaceOnUse" color-interpolation-filters="sRGB">
<feFlood flood-opacity="0" result="BackgroundImageFix"/>
<feColorMatrix in="SourceAlpha" type="matrix" values="0 0 0 0 0 0 0 0 0 0 0 0 0 0 0 0 0 0 127 0" result="hardAlpha"/>
<feOffset/>
<feGaussianBlur stdDeviation="0.917195"/>
<feColorMatrix type="matrix" values="0 0 0 0 0.101961 0 0 0 0 0.101961 0 0 0 0 0.101961 0 0 0 0.2 0"/>
<feBlend mode="normal" in2="BackgroundImageFix" result="effect1_dropShadow_2076_68240"/>
<feBlend mode="normal" in="SourceGraphic" in2="effect1_dropShadow_2076_68240" result="shape"/>
</filter>
<filter id="filter1_d_2076_68240" x="340.353" y="107.339" width="203.88" height="256.364" filterUnits="userSpaceOnUse" color-interpolation-filters="sRGB">
<feFlood flood-opacity="0" result="BackgroundImageFix"/>
<feColorMatrix in="SourceAlpha" type="matrix" values="0 0 0 0 0 0 0 0 0 0 0 0 0 0 0 0 0 0 127 0" result="hardAlpha"/>
<feOffset/>
<feGaussianBlur stdDeviation="0.831232"/>
<feColorMatrix type="matrix" values="0 0 0 0 0.101961 0 0 0 0 0.101961 0 0 0 0 0.101961 0 0 0 0.2 0"/>
<feBlend mode="normal" in2="BackgroundImageFix" result="effect1_dropShadow_2076_68240"/>
<feBlend mode="normal" in="SourceGraphic" in2="effect1_dropShadow_2076_68240" result="shape"/>
</filter>
</defs>
</svg>
